<?xml version="1.0" encoding="UTF-8"?>
<svg id="Layer_1" data-name="Layer 1" xmlns="http://www.w3.org/2000/svg" viewBox="0 0 1042.92 293.14">
  <defs>
    <style>
      .cls-1 {
        fill: #fff;
        stroke-width: 0px;
      }
    </style>
  </defs>
  <path class="cls-1" d="m268.52,95.08c-4.55,1.36-9.12,2.66-13.69,3.97-2.39.69-4.79,1.37-7.18,2.07-.27.08-.48.12-.63.12-.12,0-.23-.02-.4-.12-7.78-4.45-16.58-7.4-28.53-9.59-5.39-.98-9.8-1.44-13.89-1.44-.71,0-1.42.01-2.13.04-5.38.22-10.05,2.56-12.8,6.43-2.38,3.35-3.16,7.54-2.26,11.95-.85-.34-1.71-.71-2.59-1.09-.85-.37-1.7-.73-2.56-1.07l-1.93-.79c-4.23-1.74-8.61-3.54-13.42-4.15-1.26-.16-2.41-.24-3.52-.24-3.26,0-6.08.68-8.61,2.09-5.28,2.93-7.9,8.41-7.05,14.7-1.39-.36-2.76-.65-4.22-.76-.39-.03-.78-.04-1.17-.04-4.25,0-8.27,1.82-11.02,4.98-2.76,3.18-4,7.44-3.4,11.71.38,2.76,1.31,5.38,2.76,7.79-1.8,1.54-3.26,3.39-4.36,5.48-2.45,4.65-1.86,9.36,1.69,13.63,4.08,4.89,9.02,8.6,15.19,12.66,1.15.76,2.33,1.48,3.51,2.2.97.59,1.94,1.18,2.89,1.8.44.28.77.87,1.15,1.55.16.29.33.58.5.85l1.49,2.38c1.73,2.76,3.51,5.62,5.51,8.31l-.85,2.12c-3.63,9.1-7.38,18.51-13.19,26.6-2.02,2.82-3.86,4.27-6.13,4.83-.59.14-1.2.22-1.83.22-2.45,0-4.89-1.1-6.35-2.87-.75-.91-1.57-2.4-1.2-4.37.31-1.65,1.04-3.28,1.82-5.02.34-.75.67-1.49.98-2.25,1.65-4.06,3.09-8.25,4.47-12.3l.82-2.4c.84-2.44-.13-3.93-1.1-4.74-.69-.59-1.53-.9-2.4-.9-.56,0-1.13.13-1.71.38-1.53.67-1.97,2.05-2.24,2.87-2.46,7.33-4.47,12.78-6.55,17.78l-.08.19c-1.29,3.09-2.62,6.29-4.31,9.2-1.82,3.15-4.21,4.68-7.3,4.68,0,0-.3,0-.45-.01-3.61-.17-6.12-1.84-7.67-5.11-.79-1.67-.9-3.35-.32-5.13,1.84-5.68,4.22-13.19,6.33-20.89.43-1.55.36-2.8-.22-3.81-.33-.58-1-1.35-2.3-1.71-.39-.1-.77-.16-1.14-.16-1.27,0-2.98.61-3.85,3.53l-1.28,4.32c-3.21,10.87-6.53,22.11-11.04,32.69-1.46,3.43-3.93,5.18-7.55,5.35-.19,0-.38.01-.57.01-3.13,0-5.54-1.26-7.14-3.75-1.18-1.83-1.49-3.8-.93-5.85,3.4-12.3,6.84-24.57,10.32-36.84.82-2.88-.71-4.5-2.42-5.06-.45-.15-.91-.23-1.36-.23-1.72,0-3.12,1.15-3.66,3.01l-1.38,4.76c-1.31,4.53-2.62,9.07-3.89,13.62-1.58,5.65-3.14,11.31-4.71,16.97-1.59,5.74-3.18,11.49-4.78,17.23-1.24,4.46-2.53,8.9-3.81,13.35l-.41,1.41c-.55,1.9-2.43,3.18-4.68,3.18-.61,0-1.23-.1-1.83-.29-2.9-.92-5.07-4.11-5.3-7.76-.46-7.17.84-14.38,2.1-21.35l.08-.43c1.74-9.59,3.88-19.26,6.38-28.72,1.48-5.62,3.14-11.31,4.74-16.81.58-1.98,1.15-3.97,1.72-5.95,1.64-5.7,3.3-11.41,4.95-17.11l3.95-13.65c.1-.36.1-.66.1-.93v-.37s.07-3.2.07-3.2l-6.28,3.3c-2.43,1.28-4.79,2.52-7.16,3.75l-1.17.6c-2.84,1.47-5.78,2.99-8.7,4.36-.6.28-1.22.42-1.84.42-2.27,0-4.11-1.82-4.31-4.24.02,0,.07-.07.17-.16,1.36-1.4,2.93-2.56,4.6-3.77,2.32-1.71,4.53-3.63,5.59-6.58,1.76-4.95,4.82-9.07,8.07-13.43l1.31-1.77c4.53-6.17,9.47-12.38,14.66-18.44,3.55-4.13,8.23-6.53,12.33-8.32,10.09-4.42,20.58-8.4,30.72-12.26l3.38-1.28c1.88-.72,3.78-1.37,5.68-2.03,4.79-1.66,9.73-3.37,14.29-6.01,2.05-1.19,4.1-2.4,6.14-3.6,4.34-2.57,8.83-5.22,13.34-7.63,7.29-3.88,15.31-7.66,24.54-11.55,7.05-2.96,14.25-5.6,20.36-7.79,8.83-3.15,17.89-5.93,25.58-8.22,2.46-.74,4.95-1.53,7.53-2.4C212.6,11.89,180.98,0,146.57,0H0v184.9c1.81-.93,3.6-1.82,5.43-2.78,6.14-3.19,12.68-6.65,19.99-10.58,9.79-5.25,20.27-11.08,31.99-17.8-1.4,4.88-2.74,9.53-4.1,14.18l-.12.41c-4.94,17.01-10.06,34.6-13.44,52.38l-.3,1.59c-1.48,7.77-3.02,15.8-2.58,23.99.09,1.7-.3,2.54-1.73,3.72-7.52,6.21-15.01,12.46-22.5,18.7-4.22,3.52-8.43,7.03-12.66,10.54v13.89h146.57c80.95,0,146.57-65.62,146.57-146.57h0c0-19.68-3.91-38.44-10.94-55.58-4.44,1.33-8.97,2.69-13.68,4.1Zm-77.81,104.83c-2.22,3.52-4.93,6.96-9.74,8.31-6.2,1.73-12.44,2.58-19.08,2.58-1.28,0-2.58-.03-3.89-.1,2.67-5.3,4.75-10.88,6.76-16.29.49-1.31.98-2.63,1.48-3.94.96-2.29-.38-3.36-1.01-3.71-1.16-.66-1.89-1.82-2.73-3.17-.23-.37-.46-.73-.69-1.09-1.79-2.67-3.46-5.34-4.97-7.94-1.09-1.89-2.64-3.37-4.87-4.68-6.63-3.86-11.76-7.6-16.13-11.77-1.41-1.33-2.48-2.5-3.18-3.9-.44-.89-.47-1.75-.1-2.78.53-1.46,1.52-2.78,3.11-4.13.33-.28.69-.42,1.1-.42.3,0,.63.07.98.22l1.45.6c12.82,5.27,26.08,10.72,37.63,18.83,4.65,3.27,9.36,6.94,11.41,12.67,1.05,2.93,1.75,6.04,2.02,9.01.59,4,.67,7.55.67,10.51,0,.57-.07.96-.22,1.18Zm16.95-20.73c-.29,2.43-1.52,4.01-4,5.13-3.07,1.39-4.28,1.98-5.63,3.29-.26-1.97-.55-3.92-.92-5.85-1.51-7.86-5.91-14.37-13.46-19.91-8.1-5.95-17.56-11.21-28.92-16.07-3.4-1.45-6.8-2.88-10.21-4.31l-3.38-1.41c-.31-.15-.67-.33-1.16-.37-2.69-.3-3.6-2.1-4.49-5.78-.59-2.47-.2-4.75,1.1-6.4,1.25-1.58,3.2-2.45,5.5-2.45.62,0,1.26.06,1.91.19,3.27.63,6.3,2,9.49,3.45l1.86.84c2.03.9,4.07,1.78,6.1,2.67,5.02,2.18,10.2,4.44,15.2,6.84,4.55,2.18,8.92,4.89,13.38,7.71,2.87,1.81,5.72,3.66,8.57,5.51l1.57,1.02c3.38,2.2,5.34,5.01,6.19,8.84,1.46,6.63,1.87,12.05,1.28,17.06Zm17-29.22c-.49,2.18-1.44,3.83-2.93,5.02-2.52,2.02-5.04,4.03-7.61,6.1-.16-.65-.31-1.29-.45-1.93-1.02-4.62-3.61-8.37-7.92-11.48-11.07-7.97-21.32-13.98-31.35-18.39-2.05-.9-4.1-1.8-6.15-2.69-3.63-1.59-7.27-3.17-10.89-4.79-.65-.29-.84-.5-.98-.84-1.47-3.45-2.08-6.29-.24-8.95,1.42-2.06,3.49-2.94,6.91-2.94.5,0,1.01.02,1.53.05,3.7.21,7.17,1.5,10.07,2.74,3.84,1.64,7.78,3.19,11.59,4.69,5.76,2.27,11.71,4.61,17.38,7.28,6.1,2.86,12.41,5.82,18.25,9.44,1.8,1.12,2.71,2.48,3.05,4.57.69,4.19.6,8.16-.27,12.13Zm27.05-28.32c-.88,2.77-2.33,5.35-4.42,7.87-.91,1.11-2.13,1.79-3.82,2.15-2.53.55-5.06,1.12-7.5,1.67l-2.81.63-.36.05c-.29.04-.52.07-.74.13-.55-2.57-2.03-4.72-4.4-6.38-5.48-3.85-11.52-6.71-17.35-9.48l-1.18-.56c-2.79-1.33-5.66-2.57-8.44-3.77l-1.03-.45c-3.88-1.68-6.2-7.17-4.67-11.08.85-2.19,2.47-3.49,5.1-4.08,1.37-.31,2.84-.46,4.48-.46,2.39,0,4.87.33,7.06.61,12.33,1.63,21.88,4.44,30.06,8.84,4.34,2.34,7.43,5.19,9.47,8.73,1.02,1.78,1.2,3.56.56,5.58Z"/>
  <path class="cls-1" d="m407.78,90.21c5.96-2.98,10.62-7.16,13.97-12.53,3.36-5.38,5.04-11.69,5.04-18.96s-1.68-13.58-5.04-18.96c-3.36-5.38-8.01-9.56-13.97-12.53-5.96-2.98-12.84-4.47-20.65-4.47h-32.67v71.92h32.67c7.81,0,14.69-1.49,20.65-4.47Zm-36.57-9.09v-44.79h15.1c4.79,0,8.96.91,12.48,2.72,3.53,1.82,6.27,4.4,8.22,7.76,1.95,3.36,2.93,7.33,2.93,11.92s-.98,8.48-2.93,11.87-4.69,5.99-8.22,7.81c-3.53,1.82-7.69,2.72-12.48,2.72h-15.1Z"/>
  <path class="cls-1" d="m446,85.33c3.56,3.36,7.74,5.96,12.53,7.81,4.79,1.85,10.03,2.77,15.72,2.77s10.8-.91,15.56-2.72c4.76-1.81,8.92-4.4,12.48-7.76,3.56-3.35,6.32-7.31,8.27-11.87,1.95-4.56,2.93-9.5,2.93-14.85s-.98-10.38-2.93-14.9c-1.95-4.52-4.71-8.46-8.27-11.82-3.56-3.36-7.72-5.94-12.48-7.76-4.76-1.81-9.98-2.72-15.67-2.72s-10.91.92-15.67,2.77c-4.76,1.85-8.92,4.45-12.48,7.81-3.56,3.36-6.32,7.28-8.27,11.76-1.95,4.49-2.93,9.44-2.93,14.85s.98,10.27,2.93,14.79c1.95,4.52,4.71,8.46,8.27,11.81Zm7.35-35.91c1.13-2.77,2.71-5.2,4.73-7.29,2.02-2.09,4.4-3.7,7.14-4.83,2.74-1.13,5.72-1.69,8.94-1.69s6.18.56,8.89,1.69c2.7,1.13,5.09,2.74,7.14,4.83,2.06,2.09,3.65,4.52,4.78,7.29,1.13,2.77,1.69,5.87,1.69,9.3s-.56,6.52-1.69,9.3c-1.13,2.77-2.72,5.21-4.78,7.29-2.05,2.09-4.44,3.7-7.14,4.83-2.71,1.13-5.67,1.7-8.89,1.7s-6.2-.57-8.94-1.7c-2.74-1.13-5.12-2.74-7.14-4.83-2.02-2.09-3.6-4.52-4.73-7.29-1.13-2.77-1.69-5.87-1.69-9.3s.57-6.52,1.69-9.3Z"/>
  <path class="cls-1" d="m532.61,85.43c3.49,3.36,7.64,5.94,12.43,7.76s10.03,2.72,15.72,2.72c5.14,0,10.27-.77,15.41-2.31,5.14-1.54,9.69-3.82,13.66-6.83v-29.18h-15.21v21.1c-1.1.58-2.21,1.11-3.34,1.5-3.12,1.1-6.32,1.64-9.61,1.64s-6.56-.58-9.4-1.75c-2.84-1.16-5.31-2.77-7.4-4.83-2.09-2.06-3.7-4.5-4.83-7.35-1.13-2.84-1.69-5.91-1.69-9.2s.57-6.54,1.69-9.35c1.13-2.81,2.74-5.24,4.83-7.29,2.09-2.05,4.57-3.65,7.45-4.78,2.88-1.13,6.03-1.69,9.45-1.69,3.7,0,7.09.67,10.17,2s5.96,3.41,8.63,6.22l10.58-9.86c-3.49-4.04-7.79-7.12-12.9-9.25-5.1-2.12-10.84-3.18-17.21-3.18-5.75,0-11.03.91-15.82,2.72-4.79,1.82-8.97,4.4-12.53,7.76-3.56,3.36-6.32,7.3-8.27,11.82s-2.93,9.49-2.93,14.9.98,10.38,2.93,14.9c1.95,4.52,4.67,8.46,8.17,11.81Z"/>
  <path class="cls-1" d="m547.04,13.41c3.53,2.81,7.96,4.21,13.3,4.21s9.78-1.4,13.3-4.21c3.53-2.81,5.43-6.61,5.7-11.4h-10.07c-.14,2.19-1.04,3.96-2.72,5.29-1.68,1.34-3.75,2-6.22,2s-4.45-.67-6.16-2c-1.71-1.34-2.64-3.1-2.77-5.29h-10.07c.27,4.8,2.17,8.6,5.7,11.4Z"/>
  <path class="cls-1" d="m619.26,79.27h33.31l6.41,15.41h17.47l-32.26-71.92h-16.44l-31.95,71.92h17.06l6.41-15.41Zm16.66-40.05l11.4,27.42h-22.8l11.4-27.42Z"/>
  <polygon class="cls-1" points="736.55 81.12 700.69 81.12 700.69 22.76 683.95 22.76 683.95 94.68 736.55 94.68 736.55 81.12"/>
  <path class="cls-1" d="m789.09,79.27h33.31l6.41,15.41h17.47l-32.26-71.92h-16.44l-31.95,71.92h17.06l6.41-15.41Zm16.66-40.05l11.4,27.42h-22.8l11.4-27.42Z"/>
  <polygon class="cls-1" points="870.52 68.48 903.71 68.48 903.71 55.12 870.52 55.12 870.52 36.12 908.12 36.12 908.12 22.76 853.77 22.76 853.77 94.68 870.52 94.68 870.52 68.48"/>
  <polygon class="cls-1" points="975.11 81.32 935.97 81.32 935.97 64.68 969.36 64.68 969.36 51.63 935.97 51.63 935.97 36.12 973.78 36.12 973.78 22.76 919.43 22.76 919.43 94.68 975.11 94.68 975.11 81.32"/>
  <polygon class="cls-1" points="980.25 22.76 980.25 36.32 1003.26 36.32 1003.26 94.68 1019.91 94.68 1019.91 36.32 1042.92 36.32 1042.92 22.76 980.25 22.76"/>
  <path class="cls-1" d="m371.2,173.46h14.38c6.44,0,11.99-1.06,16.64-3.18,4.66-2.12,8.26-5.12,10.79-8.99,2.53-3.87,3.8-8.51,3.8-13.92s-1.27-9.97-3.8-13.87c-2.53-3.9-6.13-6.9-10.79-8.99-4.66-2.09-10.2-3.13-16.64-3.13h-31.13v71.92h16.75v-19.83Zm24.97-35.29c2.6,2.16,3.91,5.22,3.91,9.2s-1.3,7.06-3.91,9.25c-2.6,2.19-6.44,3.29-11.51,3.29h-13.46v-24.97h13.46c5.07,0,8.9,1.08,11.51,3.24Z"/>
  <path class="cls-1" d="m447.54,121.37l-31.95,71.92h17.06l6.41-15.41h33.31l6.41,15.41h17.47l-32.26-71.92h-16.44Zm-3.23,43.87l11.4-27.42,11.4,27.42h-22.8Z"/>
  <polygon class="cls-1" points="533.94 193.29 533.94 167.64 561.68 121.37 545.45 121.37 526.2 153.22 507.02 121.37 489.25 121.37 517.2 167.68 517.2 193.29 533.94 193.29"/>
  <polygon class="cls-1" points="568.06 121.37 568.06 193.29 620.66 193.29 620.66 179.73 584.8 179.73 584.8 121.37 568.06 121.37"/>
  <path class="cls-1" d="m669.46,121.37h-16.44l-31.95,71.92h17.06l6.41-15.41h33.31l6.41,15.41h17.47l-32.26-71.92Zm-19.67,43.87l11.4-27.42,11.4,27.42h-22.8Z"/>
  <path class="cls-1" d="m718.42,123.17c-4.49,2.02-7.83,4.73-10.02,8.12-2.19,3.39-3.29,7.14-3.29,11.25,0,3.77.74,6.9,2.21,9.4,1.47,2.5,3.46,4.52,5.96,6.06,2.5,1.54,5.24,2.77,8.22,3.7s5.94,1.71,8.89,2.36c2.94.65,5.67,1.34,8.17,2.06,2.5.72,4.5,1.64,6.01,2.77,1.51,1.13,2.26,2.65,2.26,4.57,0,1.51-.48,2.83-1.44,3.95-.96,1.13-2.45,2.04-4.47,2.72-2.02.69-4.67,1.03-7.96,1.03-4.31,0-8.6-.7-12.84-2.11-4.25-1.4-7.88-3.2-10.89-5.4l-5.65,12.53c3.22,2.47,7.48,4.47,12.79,6.01,4.17,1.21,8.49,1.93,12.93,2.19l-2.2,8.96h3.49c1.78,0,3.07.27,3.85.82.79.55,1.18,1.27,1.18,2.16,0,.96-.39,1.75-1.18,2.36-.79.62-2.14.92-4.06.92-1.3,0-2.5-.14-3.6-.41-1.1-.28-2.16-.65-3.19-1.13l-2.46,6.78c1.23.69,2.69,1.23,4.37,1.64s3.41.62,5.19.62c4.52,0,8.15-.91,10.89-2.72s4.11-4.33,4.11-7.55c0-2.06-.7-3.89-2.11-5.5-1.4-1.61-3.65-2.59-6.73-2.93l.99-4.1c4.65-.39,8.67-1.35,12.06-2.89,4.52-2.06,7.89-4.76,10.12-8.12,2.23-3.36,3.34-7.05,3.34-11.1,0-3.7-.77-6.8-2.31-9.3-1.54-2.5-3.54-4.49-6.01-5.96-2.46-1.47-5.17-2.69-8.12-3.65-2.95-.96-5.93-1.76-8.94-2.41-3.01-.65-5.75-1.3-8.22-1.95-2.47-.65-4.45-1.56-5.96-2.72-1.51-1.16-2.26-2.71-2.26-4.62,0-1.51.46-2.88,1.39-4.11.92-1.23,2.38-2.21,4.37-2.93,1.99-.72,4.62-1.08,7.91-1.08s6.44.46,9.86,1.39c3.42.92,6.75,2.31,9.97,4.16l5.24-12.53c-3.29-2.06-7.14-3.63-11.56-4.73s-8.89-1.64-13.41-1.64c-6.78,0-12.42,1.01-16.9,3.03Z"/>
  <rect class="cls-1" x="774.77" y="121.37" width="16.75" height="71.92"/>
  <polygon class="cls-1" points="873.91 193.29 889.43 193.29 889.43 121.37 875.56 121.37 849.17 166.02 822.23 121.37 808.47 121.37 808.47 193.29 823.98 193.29 823.98 150.87 845.14 185.59 852.54 185.59 873.73 150.4 873.91 193.29"/>
  <path class="cls-1" d="m402.23,223.12c-4.66-2.09-10.2-3.13-16.64-3.13h-31.13v71.92h16.75v-19.83h14.38c6.44,0,11.99-1.06,16.64-3.18,4.66-2.12,8.26-5.12,10.79-8.99,2.53-3.87,3.8-8.51,3.8-13.92s-1.27-9.97-3.8-13.87c-2.53-3.9-6.13-6.9-10.79-8.99Zm-6.06,32.11c-2.6,2.19-6.44,3.29-11.51,3.29h-13.46v-24.97h13.46c5.07,0,8.9,1.08,11.51,3.24,2.6,2.16,3.91,5.22,3.91,9.2s-1.3,7.06-3.91,9.25Z"/>
  <polygon class="cls-1" points="445.38 219.99 428.63 219.99 428.63 291.91 481.24 291.91 481.24 278.34 445.38 278.34 445.38 219.99"/>
  <path class="cls-1" d="m513.6,219.99l-31.95,71.92h17.06l6.41-15.41h33.31l6.41,15.41h17.47l-32.26-71.92h-16.44Zm-3.23,43.87l11.4-27.42,11.4,27.42h-22.8Z"/>
  <polygon class="cls-1" points="558.09 233.55 581.1 233.55 581.1 291.91 597.75 291.91 597.75 233.55 620.76 233.55 620.76 219.99 558.09 219.99 558.09 233.55"/>
  <polygon class="cls-1" points="629.7 291.91 646.45 291.91 646.45 265.71 679.63 265.71 679.63 252.35 646.45 252.35 646.45 233.35 684.05 233.35 684.05 219.99 629.7 219.99 629.7 291.91"/>
  <path class="cls-1" d="m757.61,229.24c-3.56-3.36-7.72-5.94-12.48-7.76-4.76-1.81-9.98-2.72-15.67-2.72s-10.91.92-15.67,2.77c-4.76,1.85-8.92,4.45-12.48,7.81-3.56,3.36-6.32,7.28-8.27,11.76-1.95,4.49-2.93,9.44-2.93,14.85s.98,10.27,2.93,14.79,4.71,8.46,8.27,11.81c3.56,3.36,7.74,5.96,12.53,7.81,4.79,1.85,10.03,2.77,15.72,2.77s10.8-.91,15.56-2.72c4.76-1.81,8.92-4.4,12.48-7.76,3.56-3.35,6.32-7.31,8.27-11.87,1.95-4.56,2.93-9.5,2.93-14.85s-.98-10.38-2.93-14.9c-1.95-4.52-4.71-8.46-8.27-11.81Zm-7.35,36.01c-1.13,2.77-2.72,5.21-4.78,7.29-2.05,2.09-4.44,3.7-7.14,4.83-2.71,1.13-5.67,1.7-8.89,1.7s-6.2-.57-8.94-1.7c-2.74-1.13-5.12-2.74-7.14-4.83-2.02-2.09-3.6-4.52-4.73-7.29-1.13-2.77-1.69-5.87-1.69-9.3s.57-6.52,1.69-9.3c1.13-2.77,2.71-5.21,4.73-7.29,2.02-2.09,4.4-3.7,7.14-4.83,2.74-1.13,5.72-1.69,8.94-1.69s6.18.57,8.89,1.69c2.7,1.13,5.09,2.74,7.14,4.83,2.06,2.09,3.65,4.52,4.78,7.29,1.13,2.77,1.69,5.87,1.69,9.3s-.56,6.52-1.69,9.3Z"/>
  <path class="cls-1" d="m829.12,268.74c4.66-2.02,8.25-4.96,10.79-8.84,2.53-3.87,3.8-8.51,3.8-13.92s-1.27-9.97-3.8-13.87c-2.53-3.9-6.13-6.9-10.79-8.99-4.66-2.09-10.21-3.13-16.64-3.13h-31.13v71.92h16.75v-20.14h14.38c.25,0,.47-.03.72-.03l13.97,20.17h17.88l-16.03-23.13s.07-.02.1-.04Zm-6.06-31.95c2.6,2.16,3.91,5.22,3.91,9.2s-1.3,7.06-3.91,9.25c-2.6,2.19-6.44,3.29-11.51,3.29h-13.46v-24.97h13.46c5.07,0,8.9,1.08,11.51,3.24Z"/>
  <polygon class="cls-1" points="897.56 264.64 870.63 219.99 856.86 219.99 856.86 291.91 872.37 291.91 872.37 249.49 893.54 284.2 900.94 284.2 922.12 249.01 922.31 291.91 937.82 291.91 937.82 219.99 923.95 219.99 897.56 264.64"/>
  <path class="cls-1" d="m1003.06,259.75c0,6.78-1.4,11.7-4.21,14.74-2.81,3.05-6.75,4.57-11.82,4.57s-8.9-1.52-11.71-4.57c-2.81-3.05-4.21-7.96-4.21-14.74v-39.76h-16.75v40.17c0,10.62,2.88,18.77,8.63,24.45,5.75,5.69,13.73,8.53,23.94,8.53s18.08-2.84,23.84-8.53c5.75-5.68,8.63-13.84,8.63-24.45v-40.17h-16.34v39.76Z"/>
</svg>