<?xml version="1.0" encoding="UTF-8"?>
<svg id="Layer_1" data-name="Layer 1" xmlns="http://www.w3.org/2000/svg" viewBox="0 0 416.44 416.44">
  <defs>
    <style>
      .cls-1 {
        fill: #fff;
        stroke-width: 0px;
      }
    </style>
  </defs>
  <path class="cls-1" d="m381.46,135.08c-6.47,1.93-12.96,3.79-19.44,5.64-3.4.98-6.8,1.95-10.2,2.93-.39.11-.68.17-.89.17-.17,0-.32-.03-.57-.17-11.05-6.32-23.55-10.52-40.53-13.62-7.66-1.39-13.92-2.04-19.73-2.04-1.01,0-2.02.02-3.02.06-7.65.31-14.27,3.64-18.18,9.13-3.39,4.76-4.5,10.71-3.2,16.97-1.21-.48-2.43-1.01-3.68-1.54-1.21-.52-2.42-1.04-3.63-1.53l-2.74-1.12c-6.02-2.47-12.24-5.03-19.06-5.9-1.78-.23-3.42-.34-5-.34-4.64,0-8.64.97-12.24,2.97-7.5,4.17-11.22,11.95-10.01,20.88-1.97-.51-3.93-.92-5.99-1.07-.55-.04-1.11-.06-1.66-.06-6.04,0-11.75,2.58-15.66,7.07-3.92,4.51-5.69,10.57-4.84,16.63.54,3.92,1.86,7.64,3.92,11.07-2.55,2.19-4.64,4.81-6.2,7.79-3.47,6.61-2.64,13.3,2.41,19.36,5.79,6.95,12.82,12.22,21.58,17.99,1.63,1.08,3.31,2.1,4.98,3.12,1.38.84,2.75,1.68,4.11,2.55.62.4,1.09,1.23,1.64,2.2.23.41.46.82.71,1.21l2.12,3.38c2.45,3.93,4.98,7.98,7.82,11.81l-1.2,3.01c-5.15,12.93-10.48,26.29-18.74,37.79-2.88,4.01-5.48,6.06-8.71,6.86-.83.21-1.71.31-2.6.31-3.48,0-6.94-1.56-9.03-4.07-1.07-1.29-2.23-3.41-1.71-6.21.44-2.34,1.48-4.67,2.59-7.13.48-1.06.95-2.12,1.39-3.19,2.35-5.77,4.39-11.72,6.36-17.48l1.17-3.41c1.2-3.47-.19-5.58-1.56-6.74-.99-.84-2.17-1.28-3.41-1.28-.79,0-1.61.18-2.43.54-2.17.95-2.8,2.91-3.18,4.07-3.5,10.41-6.36,18.15-9.3,25.25l-.11.28c-1.83,4.39-3.73,8.94-6.12,13.06-2.59,4.47-5.98,6.65-10.36,6.65,0,0-.43,0-.64-.02-5.13-.24-8.69-2.62-10.9-7.27-1.12-2.37-1.27-4.76-.46-7.29,2.61-8.07,5.99-18.73,8.99-29.68.61-2.21.51-3.98-.31-5.42-.47-.83-1.42-1.92-3.27-2.43-.56-.15-1.1-.23-1.61-.23-1.81,0-4.23.87-5.47,5.01l-1.82,6.13c-4.56,15.44-9.28,31.41-15.68,46.45-2.07,4.87-5.58,7.35-10.73,7.6-.27.01-.54.02-.81.02-4.45,0-7.86-1.79-10.15-5.32-1.68-2.6-2.12-5.39-1.32-8.31,4.82-17.47,9.72-34.9,14.66-52.34,1.17-4.1-1.01-6.4-3.44-7.19-.64-.21-1.3-.32-1.93-.32-2.45,0-4.44,1.64-5.19,4.27l-1.95,6.77c-1.86,6.44-3.73,12.89-5.53,19.35-2.24,8.03-4.46,16.07-6.68,24.1-2.26,8.16-4.51,16.32-6.79,24.48-1.76,6.33-3.59,12.65-5.41,18.96l-.58,2c-.78,2.7-3.46,4.52-6.65,4.52-.87,0-1.74-.14-2.6-.41-4.11-1.3-7.21-5.83-7.53-11.03-.65-10.19,1.19-20.43,2.98-30.34l.11-.61c2.47-13.63,5.52-27.36,9.06-40.81,2.11-7.98,4.46-16.06,6.73-23.88.82-2.82,1.64-5.63,2.45-8.45,2.34-8.1,4.69-16.2,7.03-24.31l5.62-19.4c.15-.51.14-.94.14-1.32v-.52s.1-4.54.1-4.54l-8.92,4.68c-3.45,1.82-6.81,3.59-10.17,5.32l-1.65.86c-4.03,2.09-8.21,4.25-12.36,6.2-.85.4-1.73.6-2.62.6-3.22,0-5.84-2.58-6.12-6.02.03,0,.1-.09.24-.23,1.93-2,4.16-3.63,6.53-5.36,3.3-2.43,6.43-5.16,7.94-9.35,2.5-7.03,6.85-12.88,11.46-19.08l1.86-2.51c6.44-8.77,13.45-17.58,20.83-26.2,5.04-5.87,11.69-9.27,17.52-11.83,14.33-6.28,29.23-11.94,43.63-17.41l4.8-1.82c2.67-1.02,5.37-1.95,8.07-2.89,6.8-2.35,13.83-4.79,20.3-8.53,2.92-1.69,5.82-3.4,8.72-5.12,6.17-3.65,12.55-7.42,18.95-10.84,10.35-5.52,21.75-10.88,34.86-16.4,10.02-4.21,20.24-7.95,28.92-11.07,12.55-4.48,25.41-8.42,36.34-11.68,3.47-1.04,7.04-2.2,10.67-3.43C302.01,16.89,257.1,0,208.22,0H0v262.67c2.57-1.32,5.11-2.59,7.72-3.95,8.72-4.53,18.01-9.45,28.4-15.03,13.91-7.46,28.79-15.74,45.45-25.29-1.99,6.93-3.9,13.54-5.82,20.15l-.17.58c-7.02,24.17-14.29,49.16-19.09,74.41l-.43,2.26c-2.11,11.03-4.29,22.44-3.66,34.08.13,2.42-.42,3.6-2.46,5.28-10.68,8.82-21.32,17.7-31.96,26.57-5.99,5-11.98,9.98-17.98,14.97v19.73h208.22c115,0,208.22-93.22,208.22-208.22h0c0-27.96-5.55-54.61-15.54-78.96-6.31,1.9-12.73,3.82-19.44,5.82Zm-110.54,148.93c-3.15,5-7,9.88-13.84,11.8-8.81,2.46-17.68,3.66-27.11,3.66-1.82,0-3.67-.05-5.53-.14,3.8-7.54,6.75-15.46,9.61-23.14.69-1.87,1.39-3.73,2.1-5.59,1.36-3.26-.55-4.77-1.43-5.27-1.65-.94-2.68-2.59-3.87-4.5-.32-.52-.65-1.04-.99-1.55-2.54-3.79-4.92-7.59-7.07-11.28-1.55-2.68-3.75-4.79-6.92-6.64-9.42-5.48-16.7-10.79-22.92-16.71-2-1.89-3.53-3.55-4.51-5.54-.63-1.27-.67-2.49-.14-3.96.75-2.08,2.16-3.95,4.42-5.87.47-.4.98-.59,1.56-.59.43,0,.9.1,1.4.31l2.07.85c18.22,7.49,37.05,15.24,53.46,26.75,6.61,4.64,13.3,9.85,16.2,18,1.5,4.16,2.49,8.58,2.87,12.8.84,5.68.95,10.72.95,14.93,0,.81-.1,1.36-.31,1.68Zm24.08-29.45c-.41,3.45-2.16,5.7-5.69,7.29-4.35,1.97-6.09,2.82-7.99,4.68-.37-2.8-.78-5.57-1.31-8.31-2.15-11.17-8.4-20.42-19.12-28.29-11.5-8.45-24.94-15.92-41.08-22.83-4.83-2.06-9.67-4.09-14.5-6.12l-4.8-2.01c-.44-.21-.96-.47-1.65-.53-3.83-.42-5.11-2.98-6.38-8.21-.84-3.51-.29-6.74,1.57-9.1,1.77-2.25,4.55-3.48,7.82-3.48.88,0,1.79.09,2.72.27,4.65.9,8.94,2.85,13.49,4.91l2.65,1.19c2.88,1.28,5.78,2.53,8.67,3.79,7.12,3.1,14.49,6.31,21.59,9.72,6.46,3.09,12.68,6.95,19.01,10.96,4.08,2.58,8.12,5.2,12.17,7.83l2.23,1.45c4.8,3.13,7.59,7.12,8.79,12.56,2.08,9.42,2.66,17.12,1.82,24.24Zm24.15-41.51c-.69,3.1-2.05,5.44-4.16,7.13-3.58,2.86-7.15,5.73-10.81,8.67-.23-.93-.44-1.83-.64-2.74-1.45-6.56-5.13-11.89-11.25-16.31-15.72-11.32-30.29-19.86-44.53-26.13-2.91-1.28-5.82-2.55-8.74-3.82-5.16-2.25-10.33-4.51-15.47-6.81-.93-.41-1.19-.71-1.39-1.19-2.09-4.89-2.95-8.93-.34-12.72,2.01-2.93,4.95-4.17,9.82-4.17.72,0,1.44.03,2.17.07,5.25.3,10.18,2.14,14.3,3.89,5.46,2.33,11.06,4.53,16.47,6.66,8.18,3.22,16.63,6.55,24.69,10.34,8.67,4.06,17.63,8.26,25.93,13.42,2.55,1.59,3.85,3.53,4.34,6.5.98,5.95.86,11.59-.39,17.23Zm38.43-40.23c-1.25,3.94-3.31,7.6-6.29,11.18-1.3,1.57-3.02,2.54-5.43,3.06-3.6.78-7.19,1.59-10.66,2.37l-3.99.9-.51.06c-.41.05-.74.11-1.05.18-.78-3.66-2.88-6.7-6.25-9.06-7.78-5.47-16.36-9.53-24.65-13.47l-1.68-.8c-3.96-1.88-8.04-3.65-11.99-5.35l-1.47-.63c-5.52-2.39-8.81-10.19-6.64-15.74,1.21-3.11,3.51-4.95,7.25-5.8,1.95-.44,4.03-.66,6.37-.66,3.4,0,6.92.46,10.03.87,17.51,2.32,31.08,6.31,42.71,12.56,6.16,3.32,10.56,7.38,13.45,12.4,1.45,2.53,1.71,5.05.79,7.93Z"/>
</svg>