<?xml version="1.0" encoding="UTF-8"?>
<svg id="Layer_1" data-name="Layer 1" xmlns="http://www.w3.org/2000/svg" viewBox="0 0 469.27 469.27">
  <defs>
    <style>
      .cls-1 {
        fill: #104abf;
      }

      .cls-1, .cls-2 {
        stroke-width: 0px;
      }

      .cls-2 {
        fill: #fff;
      }
    </style>
  </defs>
  <rect class="cls-2" width="469.27" height="469.27"/>
  <path class="cls-1" d="m358.51,185.83c-4.34,1.29-8.7,2.54-13.06,3.79-2.28.65-4.57,1.31-6.85,1.97-.26.08-.45.11-.6.11-.11,0-.22-.02-.38-.11-7.42-4.24-15.81-7.06-27.22-9.15-5.14-.94-9.35-1.37-13.25-1.37-.68,0-1.35.01-2.03.04-5.14.21-9.58,2.45-12.21,6.13-2.27,3.2-3.02,7.19-2.15,11.4-.81-.33-1.63-.68-2.47-1.04-.81-.35-1.62-.7-2.44-1.03l-1.84-.75c-4.04-1.66-8.22-3.37-12.8-3.96-1.2-.15-2.29-.23-3.35-.23-3.11,0-5.8.65-8.22,1.99-5.04,2.8-7.54,8.02-6.72,14.02-1.32-.34-2.64-.62-4.02-.72-.37-.03-.75-.04-1.11-.04-4.06,0-7.89,1.73-10.51,4.75-2.63,3.03-3.82,7.1-3.25,11.17.36,2.63,1.25,5.13,2.63,7.43-1.71,1.47-3.11,3.23-4.16,5.23-2.33,4.44-1.77,8.93,1.62,13,3.89,4.67,8.61,8.2,14.49,12.08,1.1.72,2.22,1.41,3.34,2.09.92.56,1.85,1.13,2.76,1.71.42.27.73.83,1.1,1.48.16.28.31.55.48.81l1.43,2.27c1.65,2.64,3.35,5.36,5.25,7.93l-.81,2.02c-3.46,8.68-7.04,17.65-12.58,25.37-1.93,2.69-3.68,4.07-5.85,4.61-.56.14-1.15.21-1.75.21-2.34,0-4.66-1.05-6.06-2.73-.72-.86-1.5-2.29-1.15-4.17.29-1.57,1-3.13,1.74-4.79.32-.71.64-1.42.93-2.14,1.58-3.87,2.95-7.87,4.27-11.74l.79-2.29c.8-2.33-.13-3.75-1.05-4.52-.66-.56-1.46-.86-2.29-.86-.53,0-1.08.12-1.63.36-1.46.64-1.88,1.95-2.14,2.73-2.35,6.99-4.27,12.19-6.25,16.96l-.08.19c-1.23,2.95-2.5,6-4.11,8.77-1.74,3-4.01,4.46-6.96,4.46,0,0-.29,0-.43-.01-3.44-.16-5.84-1.76-7.32-4.88-.75-1.59-.85-3.2-.31-4.89,1.75-5.42,4.02-12.58,6.04-19.93.41-1.48.34-2.67-.21-3.64-.32-.56-.96-1.29-2.2-1.63-.38-.1-.74-.15-1.08-.15-1.22,0-2.84.58-3.67,3.36l-1.22,4.12c-3.06,10.37-6.23,21.09-10.53,31.19-1.39,3.27-3.74,4.94-7.2,5.1-.18,0-.37.01-.55.01-2.99,0-5.28-1.2-6.81-3.57-1.13-1.74-1.43-3.62-.88-5.58,3.24-11.73,6.53-23.44,9.84-35.14.78-2.75-.68-4.3-2.31-4.83-.43-.14-.87-.22-1.3-.22-1.64,0-2.98,1.1-3.49,2.87l-1.31,4.55c-1.25,4.33-2.5,8.65-3.71,12.99-1.5,5.39-3,10.79-4.49,16.19-1.52,5.48-3.03,10.96-4.56,16.44-1.18,4.25-2.41,8.49-3.63,12.73l-.39,1.34c-.52,1.81-2.32,3.03-4.47,3.03-.58,0-1.17-.09-1.74-.27-2.76-.87-4.84-3.92-5.06-7.4-.44-6.84.8-13.72,2-20.37l.07-.41c1.66-9.15,3.71-18.37,6.09-27.4,1.42-5.36,2.99-10.79,4.52-16.03.55-1.89,1.1-3.78,1.64-5.68,1.57-5.44,3.15-10.88,4.72-16.32l3.77-13.02c.1-.34.1-.63.1-.88v-.35s.07-3.05.07-3.05l-5.99,3.15c-2.32,1.22-4.57,2.41-6.83,3.57l-1.11.58c-2.71,1.4-5.51,2.86-8.3,4.16-.57.27-1.16.4-1.76.4-2.16,0-3.92-1.73-4.11-4.04.02,0,.07-.06.16-.16,1.3-1.34,2.8-2.44,4.39-3.6,2.22-1.63,4.32-3.46,5.33-6.28,1.68-4.72,4.6-8.65,7.7-12.81l1.25-1.68c4.32-5.89,9.03-11.81,13.99-17.59,3.38-3.94,7.85-6.23,11.76-7.94,9.63-4.22,19.63-8.02,29.3-11.69l3.22-1.22c1.79-.68,3.61-1.31,5.42-1.94,4.56-1.58,9.29-3.22,13.63-5.73,1.96-1.13,3.91-2.29,5.85-3.44,4.14-2.45,8.42-4.98,12.73-7.28,6.95-3.71,14.61-7.31,23.41-11.01,6.73-2.82,13.59-5.34,19.42-7.43,8.43-3.01,17.06-5.65,24.4-7.84,2.33-.7,4.73-1.48,7.17-2.3-23.86-18.94-54.01-30.28-86.84-30.28H102.36v176.38c1.73-.88,3.43-1.74,5.18-2.65,5.86-3.04,12.1-6.34,19.07-10.09,9.34-5.01,19.33-10.57,30.52-16.98-1.34,4.65-2.62,9.09-3.91,13.53l-.11.39c-4.72,16.23-9.59,33.01-12.82,49.97l-.29,1.52c-1.42,7.41-2.88,15.07-2.46,22.89.09,1.62-.28,2.42-1.65,3.55-7.17,5.93-14.32,11.88-21.46,17.84-4.02,3.35-8.05,6.7-12.07,10.05v13.25h139.82c77.22,0,139.82-62.6,139.82-139.82h0c0-18.77-3.73-36.67-10.44-53.02-4.24,1.27-8.55,2.56-13.05,3.91Zm-74.23,100.01c-2.12,3.36-4.7,6.64-9.29,7.93-5.91,1.65-11.87,2.46-18.2,2.46-1.22,0-2.46-.03-3.71-.09,2.55-5.06,4.53-10.38,6.45-15.54.47-1.25.93-2.51,1.41-3.76.92-2.19-.37-3.2-.96-3.54-1.11-.63-1.8-1.74-2.6-3.02-.22-.35-.44-.7-.66-1.04-1.71-2.55-3.3-5.09-4.75-7.57-1.04-1.8-2.52-3.22-4.65-4.46-6.33-3.68-11.22-7.25-15.39-11.22-1.34-1.27-2.37-2.39-3.03-3.72-.42-.85-.45-1.67-.09-2.66.5-1.4,1.45-2.65,2.97-3.94.31-.27.65-.4,1.04-.4.29,0,.6.07.94.21l1.39.57c12.23,5.03,24.88,10.23,35.9,17.96,4.44,3.12,8.93,6.62,10.88,12.08,1,2.79,1.67,5.76,1.93,8.59.57,3.81.64,7.2.64,10.03,0,.55-.07.92-.21,1.13Zm16.17-19.78c-.28,2.32-1.45,3.83-3.82,4.9-2.92,1.33-4.09,1.89-5.37,3.14-.25-1.88-.53-3.74-.88-5.58-1.44-7.5-5.64-13.71-12.84-18.99-7.72-5.68-16.75-10.69-27.59-15.33-3.24-1.39-6.49-2.75-9.74-4.11l-3.22-1.35c-.3-.14-.64-.31-1.11-.36-2.57-.28-3.43-2-4.28-5.51-.57-2.36-.19-4.53,1.05-6.11,1.19-1.51,3.05-2.34,5.25-2.34.59,0,1.2.06,1.83.18,3.12.6,6.01,1.91,9.06,3.3l1.78.8c1.94.86,3.88,1.7,5.82,2.55,4.78,2.08,9.73,4.24,14.5,6.53,4.34,2.08,8.51,4.66,12.76,7.36,2.74,1.73,5.45,3.49,8.17,5.26l1.5.97c3.22,2.1,5.1,4.78,5.9,8.43,1.4,6.32,1.79,11.49,1.22,16.27Zm16.21-27.87c-.46,2.08-1.38,3.65-2.79,4.79-2.4,1.92-4.8,3.85-7.26,5.82-.15-.62-.3-1.23-.43-1.84-.98-4.41-3.44-7.99-7.55-10.95-10.56-7.6-20.34-13.34-29.9-17.55-1.95-.86-3.91-1.71-5.87-2.57-3.47-1.51-6.94-3.03-10.39-4.57-.62-.28-.8-.48-.94-.8-1.4-3.29-1.98-6-.23-8.54,1.35-1.96,3.33-2.8,6.59-2.8.48,0,.97.02,1.45.05,3.53.2,6.84,1.43,9.61,2.61,3.67,1.56,7.43,3.04,11.06,4.48,5.49,2.16,11.17,4.4,16.58,6.94,5.82,2.73,11.84,5.55,17.41,9.01,1.71,1.06,2.59,2.37,2.91,4.36.66,4,.57,7.78-.26,11.57Zm25.8-27.01c-.84,2.65-2.22,5.1-4.22,7.51-.87,1.05-2.03,1.71-3.65,2.06-2.42.53-4.83,1.07-7.16,1.59l-2.68.6-.34.04c-.27.04-.5.07-.71.12-.52-2.45-1.93-4.5-4.2-6.09-5.22-3.67-10.98-6.4-16.55-9.04l-1.13-.54c-2.66-1.27-5.4-2.45-8.05-3.6l-.98-.43c-3.7-1.61-5.91-6.84-4.46-10.57.81-2.09,2.36-3.33,4.87-3.9,1.31-.3,2.71-.44,4.28-.44,2.28,0,4.65.31,6.74.59,11.76,1.56,20.87,4.24,28.68,8.43,4.14,2.23,7.09,4.95,9.03,8.33.97,1.7,1.14,3.39.53,5.33Z"/>
</svg>